<svg xmlns="http://www.w3.org/2000/svg" viewBox="0 0 640 360" width="640" height="360"><rect width="640" height="360" fill="#f8fafc"/><g font-family="Arial, sans-serif" font-size="20" fill="#173354"><rect x="40" y="140" width="145" height="130" rx="4" fill="#fff" stroke="#173354" stroke-width="2"/><text x="52" y="212">Controller</text><rect x="475" y="140" width="125" height="130" rx="4" fill="#fff" stroke="#173354" stroke-width="2"/><text x="487" y="212">Target</text><path d="M185 175H475 M185 235H475 M280 175V115 M370 235V115 M280 65V40H370V65" fill="none" stroke="#087f8c" stroke-width="3"/><rect x="268" y="65" width="24" height="50" rx="4" fill="#fff" stroke="#173354" stroke-width="2"/><text x="280" y="97"></text><rect x="358" y="65" width="24" height="50" rx="4" fill="#fff" stroke="#173354" stroke-width="2"/><text x="370" y="97"></text><text x="305" y="30">VDD</text><text x="222" y="161">SDA</text><text x="222" y="222">SCL</text><text x="235" y="105">Rp</text><text x="400" y="105">Rp</text><text x="140" y="318">Open-drain signals • Common ground</text></g></svg>
