<svg xmlns="http://www.w3.org/2000/svg" viewBox="0 0 640 360" width="640" height="360"><rect width="640" height="360" fill="#f8fafc"/><g font-family="Arial, sans-serif" font-size="20" fill="#173354"><path d="M50 120H85 M175 120H215 M265 120H305 M325 120H365 M415 120H445 C445 80 475 80 475 120 C475 80 505 80 505 120 C505 80 535 80 535 120H590" fill="none" stroke="#087f8c" stroke-width="3"/><rect x="85" y="100" width="90" height="40" rx="4" fill="#fff" stroke="#173354" stroke-width="2"/><text x="97" y="127">R</text><path d="M305 90V150 M325 90V150" fill="none" stroke="#087f8c" stroke-width="3"/><text x="310" y="185">C</text><text x="492" y="185">L</text><text x="83" y="255">Resistor</text><text x="265" y="255">Capacitor</text><text x="460" y="255">Inductor</text></g></svg>
